<?xml version="1.0" encoding="iso-8859-1"?>
<!-- Generator: Adobe Illustrator 21.0.0, SVG Export Plug-In . SVG Version: 6.00 Build 0)  -->
<svg version="1.1" id="&#x56FE;&#x5C42;_1" xmlns="http://www.w3.org/2000/svg" xmlns:xlink="http://www.w3.org/1999/xlink" x="0px"
	 y="0px" viewBox="0 0 370 441" style="enable-background:new 0 0 370 441;" xml:space="preserve">
<g>
	<path style="fill:#006F9F;" d="M173.298,140.62c-15.113,0-27.36-12.253-27.36-27.362c0-15.125,12.247-27.368,27.368-27.362
		c15.113-0.005,27.354,12.237,27.354,27.362C200.66,128.375,188.419,140.62,173.298,140.62z"/>
	<path style="fill:#006F9F;" d="M201.061,298.011c0.066,0.77,0.106,1.531,0.115,2.307c-0.008,15.391-12.484,27.869-27.878,27.869
		c-15.402,0-27.888-12.478-27.888-27.879c0-0.515,0.049-1.016,0.076-1.519c-0.256-29.978-13.484-171.615-43.192-172.074
		c-0.725,0.046-1.461,0.1-2.204,0.1c-15.397,0-27.888-12.481-27.888-27.878c0-15.406,12.492-27.89,27.888-27.881
		c15.396-0.008,27.885,12.47,27.885,27.881c0,0.731-0.052,1.47-0.106,2.197c0.469,29.718,13.92,56.252,43.906,56.489
		c0.52-0.025,1.014-0.08,1.512-0.074c0.76,0,1.501,0.049,2.237,0.115c29.695-0.473,42.909-27.252,43.17-57.252
		c-0.03-0.493-0.079-0.977-0.09-1.474c0-15.411,12.483-27.89,27.888-27.89c15.402,0,27.888,12.478,27.888,27.89
		c0,15.402-12.486,27.878-27.888,27.878c-0.523,0-1.025-0.035-1.534-0.074C215.013,127,201.554,268.379,201.061,298.011z"/>
</g>
</svg>
